<svg xmlns="http://www.w3.org/2000/svg" viewBox="0 0 511 511"><path d="M256.5 511c-6.1 0-11.9-2.8-15.7-7.6-16.4-20.8-46-31.4-77.4-42.7-27.9-10-56.8-20.4-79.6-39.2C56.3 398.8 43 368.4 43 328.4c0-28.5 6.4-50.9 12.6-72.5 5.9-20.5 11.4-39.8 11.4-64.2 0-31.3-21.6-82.9-29.9-100.1-3.7-7.6-2.2-16.8 3.8-22.8l43.9-43.9c6.4-6.4 16.3-7.7 24.1-3.2 24.4 14.1 42 19.7 60.5 19.3h.4c39.1 0 71.9-34.2 72.2-34.5 3.9-4.2 9.3-6.5 15-6.4 5.7.1 11.1 2.7 14.8 7 .2.3 30 33.9 71.6 33.9 19.5 0 37.1-5.6 60.9-19.3 7.8-4.5 17.7-3.2 24.1 3.2l43.9 43.9c6 6 7.6 15.2 3.8 22.8-8.3 17.2-29.9 68.7-29.9 100.1 0 24.4 5.5 43.7 11.4 64.2 6.2 21.6 12.6 44 12.6 72.5 0 11-8.9 20-20 20-11 0-20-8.9-20-20 0-22.9-5.4-41.7-11-61.5-6.4-22.2-12.9-45.2-12.9-75.2 0-35.2 18.3-82 28-104.4l-23.6-23.6c-24 12-44.7 17.3-67.3 17.3-39.4 0-70.2-19.6-87.2-33.7-17.5 14-48.8 33.7-86.3 33.7-22.1.4-42.9-4.8-67.5-17.3L78.8 87.2c9.7 22.5 28 69.3 28 104.4 0 30-6.6 53-12.9 75.2-5.7 19.9-11 38.6-11 61.5 0 58 35.7 73.8 94 94.8 28.1 10.1 57 20.5 79.4 39.3 22.2-19 51.2-29.3 79.4-39.5 20.1-7.2 39-14 55-23.4 9.5-5.6 21.7-2.5 27.4 7 5.6 9.5 2.5 21.7-7 27.4-19.2 11.4-40.9 19.2-61.9 26.7-31.4 11.3-61.1 21.9-76.8 42.6-3.7 4.9-9.5 7.8-15.7 7.9-.1-.1-.1-.1-.2-.1zm67.9-162.2c11.7-8.5 16.5-23.5 12-37.2l-10.5-32.2 27.6-19.9c11.8-8.5 16.7-23.6 12.1-37.6-4.5-13.9-17.2-23.2-31.7-23.2h-34.4l-10.4-31.9c-4.5-13.7-17.2-23-31.7-23s-27.2 9.2-31.7 23l-10.3 31.9H181c-14.5 0-27.2 9.3-31.7 23.2-4.5 14 .3 29.1 12.1 37.6l27.6 19.9-10.5 32.2c-4.5 13.7.4 28.7 12 37.2 11.7 8.5 27.5 8.6 39.2.1l27.7-20 27.7 20c5.9 4.2 12.7 6.4 19.6 6.4 6.9 0 13.8-2.2 19.7-6.5zM220 238.5c14.8 0 27.3-8.8 31.7-22.4l5.8-17.8 5.8 17.8c4.4 13.6 16.9 22.3 31.7 22.3h19.3l-15.7 11.4c-11.8 8.5-16.6 23.5-12.1 37.3l5.7 17.5-15.1-10.9c-5.7-4.1-12.5-6.3-19.6-6.3-7.1 0-13.8 2.2-19.6 6.3l-15.1 10.9 5.7-17.5c4.5-13.8-.4-28.8-12.1-37.3l-15.7-11.4H220zm113.9 0z" fill="#4e89fa"/></svg>