<svg xmlns="http://www.w3.org/2000/svg" viewBox="0 0 512 512"><path d="M465.3 108.4C406.9 27 311.2-12.7 212.4 3.6c-37.5 6.2-73.1 20.9-104 43.1C27 105.1-12.7 200.8 3.6 299.6c6.2 37.5 20.9 73.1 43.1 104 58.4 81.4 154.1 121 253 104.8 37.5-6.2 73.1-20.9 104-43.1 81.4-58.4 121-154.1 104.8-253-6.3-37.4-21-73.1-43.2-103.9zM256.3 472C137 472.1 39.9 375 40 255.7 40.1 137 137 40.1 255.7 40 375 39.9 472.1 137 472 256.3 471.9 375 375 471.9 256.3 472zM236 98.8h40v159.6c0 9.8-8.5 18.2-19.3 18.6-11.4.3-20.7-7.9-20.7-18.1V98.8zM115.6 231.9l-14.3-4.6c-10.5-3.4-16.3-14.6-12.9-25.2 3.4-10.5 14.6-16.3 25.2-12.9l14.3 4.6c10.5 3.4 16.3 14.6 12.9 25.2-3.4 10.5-14.6 16.3-25.2 12.9zm12.3 86.3l-14.3 4.6c-10.5 3.4-21.8-2.4-25.2-12.9-3.4-10.5 2.4-21.8 12.9-25.2l14.3-4.6c10.5-3.4 21.8 2.4 25.2 12.9 3.4 10.5-2.4 21.8-12.9 25.2zM181 117.8l8.8 12.2c6.5 9 4.4 21.5-4.5 27.9-9 6.5-21.5 4.4-27.9-4.5l-8.8-12.2c-6.5-9-4.4-21.5 4.5-27.9 8.9-6.5 21.4-4.5 27.9 4.5zm228.6 109.5l-14.3 4.6c-10.5 3.4-21.8-2.4-25.2-12.9-3.4-10.5 2.4-21.8 12.9-25.2l14.3-4.6c10.5-3.4 21.8 2.4 25.2 12.9 3.4 10.6-2.3 21.9-12.9 25.2zm-47.2-86.1l-8.8 12.2c-6.5 9-19 11-27.9 4.5-9-6.5-11-19-4.5-27.9l8.8-12.2c6.5-9 19-11 27.9-4.5 9 6.4 11 18.9 4.5 27.9zM256 377c11 0 20 9 20 20v15c0 11-9 20-20 20s-20-9-20-20v-15c0-11 9-20 20-20zm-70.8-22.8c9 6.5 11 19 4.5 27.9l-8.8 12.2c-6.5 9-19 11-27.9 4.5-9-6.5-11-19-4.5-27.9l8.8-12.2c6.5-9 19-11 27.9-4.5zM256 78.5c11 0 20 9 20 20v15c0 11-9 20-20 20s-20-9-20-20v-15c0-11 9-20 20-20z" fill="#4e89fa"/></svg>