<svg xmlns="http://www.w3.org/2000/svg" viewBox="0 0 512 512"><path d="M221.9 472H107c-22.1 0-40.1-17.9-40.1-40V130c0-22.1 18.1-40 40.1-40h62.9v10c0 33.1 26.9 60 60 60s60-26.9 60-60V90h63c22.1 0 40 17.9 40 40v154c0 11 9 20 20 20s20-9 20-20V130c0-44.1-35.9-80-80-80h-63V20c0-11-9-20-20-20h-80c-11 0-20 9-20 20v30H107c-44.1 0-80 35.9-80 80v302c0 44.1 35.9 80 80 80h114.9c11 0 20-9 20-20s-9-20-20-20zm-12-432h40v60c0 11-9 20-20 20s-20-9-20-20V40zm272.2 313.6l-99 138.3c-.2.3-.4.6-.7.9-9 11.2-22.4 18.1-36.7 19.1-1.1.1-2.3.1-3.4.1-13.1 0-25.9-5.1-35.5-14.2L243 436.5c-8-7.6-8.2-20.3-.6-28.3s20.3-8.2 28.3-.6l63.8 61.3c3.1 2.9 6.7 3.2 8.6 3.1 1.8-.1 5.2-.8 7.9-3.9l98.6-137.7c6.4-9 18.9-11.1 27.9-4.6 9 6.4 11 18.9 4.6 27.8zM164.9 239c0 11-9 20-20 20h-10c-11 0-20-9-20-20s9-20 20-20h10c11 0 20 9 20 20zm182 0c0 11-9 20-20 20h-112c-11 0-20-9-20-20s9-20 20-20h112c11 0 20 9 20 20zm-182 80c0 11-9 20-20 20h-10c-11 0-20-9-20-20s9-20 20-20h10c11 0 20 9 20 20zm182 0c0 11-9 20-20 20h-112c-11 0-20-9-20-20s9-20 20-20h112c11 0 20 9 20 20z" fill="#4e89fa"/></svg>