<svg xmlns="http://www.w3.org/2000/svg" viewBox="0 0 512 512"><path d="M461 204.8c0 44.8-13.5 85.3-42.4 127.5-6.2 9.1-18.7 11.4-27.8 5.2-9.1-6.2-11.4-18.7-5.2-27.8 24.1-35.2 35.4-68.6 35.4-104.9C420.9 113.9 346.9 40 256 40S91.1 113.9 91 204.8c.1 72.4 44.4 120.9 95.7 177.1 23.6 25.9 47.9 52.4 69.3 83 21.4-30.6 45.7-57.2 69.3-83l3.1-3.4c7.4-8.2 20.1-8.7 28.3-1.3 8.2 7.4 8.7 20.1 1.3 28.3l-3.1 3.4c-26.5 29.1-54 59.1-75.9 93.8-3.7 5.8-10 9.3-16.9 9.3h-12c-6.9 0-13.2-3.5-16.9-9.3-21.9-34.7-49.4-64.7-75.9-93.8-27.1-29.6-52.6-57.7-72.3-89.8-22.9-37-34-74.4-34-114.3.1-54.7 21.4-106.2 60.1-144.8S201.3 0 256 0s106.2 21.3 144.9 60c38.7 38.6 60 90.1 60.1 144.8zm-81 .2c0 68.9-56.1 125-125 125s-125-56.1-125-125S186.1 80 255 80s125 56.1 125 125zm-40 0c0-46.9-38.1-85-85-85s-85 38.1-85 85 38.1 85 85 85 85-38.1 85-85zm-56-20h-11.1v-20.9c0-11-9-20-20-20s-19.9 9-19.9 20V205c0 11 8.9 20 19.9 20H284c11 0 20-9 20-20s-9-20-20-20z" fill="#4e89fa"/></svg>