<svg xmlns="http://www.w3.org/2000/svg" viewBox="0 0 500 500"><path d="M488.4 13.1L500 482.2c-62.4 31.4-152.9 21.4-203.2-31.3-15.6-16.3-28.9-36.2-47.6-47.6-41.1-25-99.3-4.1-132.8-40.8-28.9-31.7-21.2-87.6-42.9-126-9.4-16.7-22-31-35.7-43.2C-12.5 148.8-6 35 44.3 0l444.1 13.1z" opacity=".125" fill="#a43478"/><linearGradient id="a" gradientUnits="userSpaceOnUse" x1="514.814" y1="-55.353" x2="177.88" y2="347.115"><stop offset="0" stop-color="#7333af"/><stop offset=".279" stop-color="#82339f"/><stop offset="1" stop-color="#a43478"/></linearGradient><path d="M500 0v472.7c-62.4 31.4-141.3 17.8-191.6-34.9-15.6-16.3-28.9-36.2-47.6-47.6-41.1-25-99.3-4.1-132.8-40.8-28.9-31.7-21.2-87.6-42.9-126-9.4-16.7-22-31-35.7-43.2C-.9 135.7-6 35 44.3 0H500z" fill="url(#a)"/><linearGradient id="b" gradientUnits="userSpaceOnUse" x1="212.054" y1="414.99" x2="194.788" y2="435.615"><stop offset="0" stop-color="#7333af"/><stop offset=".279" stop-color="#82339f"/><stop offset="1" stop-color="#a43478"/></linearGradient><circle cx="202" cy="427" r="13" fill="url(#b)"/><linearGradient id="c" gradientUnits="userSpaceOnUse" x1="158.167" y1="440.952" x2="141.565" y2="460.783"><stop offset="0" stop-color="#7333af"/><stop offset=".279" stop-color="#82339f"/><stop offset="1" stop-color="#a43478"/></linearGradient><circle cx="148.5" cy="452.5" r="12.5" fill="url(#c)"/><linearGradient id="d" gradientUnits="userSpaceOnUse" x1="77.414" y1="457.533" x2="68.117" y2="468.639"><stop offset="0" stop-color="#7333af"/><stop offset=".279" stop-color="#82339f"/><stop offset="1" stop-color="#a43478"/></linearGradient><circle cx="72" cy="464" r="7" fill="url(#d)"/><linearGradient id="e" gradientUnits="userSpaceOnUse" x1="77.414" y1="403.533" x2="68.117" y2="414.639"><stop offset="0" stop-color="#7333af"/><stop offset=".279" stop-color="#82339f"/><stop offset="1" stop-color="#a43478"/></linearGradient><circle cx="72" cy="410" r="7" fill="url(#e)"/><linearGradient id="f" gradientUnits="userSpaceOnUse" x1="46.754" y1="327.419" x2="39.449" y2="336.145"><stop offset="0" stop-color="#7333af"/><stop offset=".279" stop-color="#82339f"/><stop offset="1" stop-color="#a43478"/></linearGradient><circle cx="42.5" cy="332.5" r="5.5" fill="url(#f)"/><linearGradient id="g" gradientUnits="userSpaceOnUse" x1="36.207" y1="396.267" x2="31.558" y2="401.819"><stop offset="0" stop-color="#7333af"/><stop offset=".279" stop-color="#82339f"/><stop offset="1" stop-color="#a43478"/></linearGradient><circle cx="33.5" cy="399.5" r="3.5" fill="url(#g)"/><linearGradient id="h" gradientUnits="userSpaceOnUse" x1="36.207" y1="471.267" x2="31.558" y2="476.819"><stop offset="0" stop-color="#7333af"/><stop offset=".279" stop-color="#82339f"/><stop offset="1" stop-color="#a43478"/></linearGradient><circle cx="33.5" cy="474.5" r="3.5" fill="url(#h)"/><linearGradient id="i" gradientUnits="userSpaceOnUse" x1="245.98" y1="478.343" x2="240.004" y2="485.482"><stop offset="0" stop-color="#7333af"/><stop offset=".279" stop-color="#82339f"/><stop offset="1" stop-color="#a43478"/></linearGradient><circle cx="242.5" cy="482.5" r="4.5" fill="url(#i)"/></svg>