<svg xmlns="http://www.w3.org/2000/svg" viewBox="0 0 189.5 189.5"><path d="M152.5 179.5c-1.5 0-2.9-.4-4.2-1.3l-47.6-32.3-25.6 18.4c-2 1.4-4.6 1.8-6.9 1s-4.1-2.8-4.7-5.1l-12.8-48.6L4.8 93.9C1.9 92.8 0 90.1 0 87s1.9-5.9 4.7-7L179 10.6c.8-.3 1.6-.5 2.5-.6h.9c1.7.1 3.5.8 4.8 2.1l.4.4c1.1 1.3 1.7 2.8 1.8 4.4v1.2c0 .3-.1.6-.1.9l-29.4 154.4c-.5 2.5-2.2 4.6-4.5 5.5-.9.4-1.9.6-2.9.6zm-47.6-48.9l42.4 28.8 22.9-120.1-82.7 79.6 17.2 11.6s.1 0 .2.1zm-35.4-6.4l5.7 21.5 12.2-8.8-16-10.9c-.7-.5-1.4-1.1-1.9-1.8zM28.1 86.8l31.5 12c2.3.9 4 2.8 4.6 5.1l4 15.1c.2-1.7 1-3.4 2.3-4.6l78.8-75.8L28.1 86.8z" fill="#fff"/></svg>