<svg version="1.1" id="Capa_1" xmlns="http://www.w3.org/2000/svg" x="0" y="0" viewBox="0 0 227 227" xml:space="preserve"><style>.st0{fill:#fff}</style><path class="st0" d="M199.6 25.4c-18-17.6-47-26.1-86.3-25.4-39.6.8-66 7.8-83.3 21.9-16.6 13.7-24.4 33.7-24.4 63v29.9c0 34.6 18.5 72.6 54 78.4 4.1.7 7.9-2.1 8.6-6.2.7-4.1-2.1-7.9-6.2-8.6-26.9-4.4-41.4-36-41.4-63.6V84.9c0-42 15.6-68.3 93-69.9 35.1-.7 60.5 6.4 75.4 21.1 11.7 11.4 17.3 27.4 17.3 48.8v29.9c0 45.3-20.3 65.2-72.4 71.1H97c-2 0-3.9.8-5.3 2.2l-26 26c-2.9 2.9-2.9 7.7 0 10.6 1.5 1.5 3.4 2.2 5.3 2.2s3.8-.7 5.3-2.2l23.8-23.8h35.1c29.8-3.3 50.3-11.1 64.3-24.4 14.7-14 21.9-34.2 21.9-61.6v-30c0-25.3-7.4-45.3-21.8-59.5z"/><path class="st0" d="M118.2 49c12.1 0 23.4 4.7 32 13.3 8.5 8.5 13.3 19.9 13.3 32 0 4.1 3.4 7.5 7.5 7.5s7.5-3.4 7.5-7.5c0-16.1-6.3-31.2-17.6-42.6C149.4 40.3 134.3 34 118.2 34c-4.1 0-7.5 3.4-7.5 7.5s3.3 7.5 7.5 7.5z"/><path class="st0" d="M118.2 75.4c10.4 0 18.9 8.5 18.9 18.9 0 4.1 3.4 7.5 7.5 7.5s7.5-3.4 7.5-7.5c0-18.7-15.2-33.9-33.9-33.9-4.1 0-7.5 3.4-7.5 7.5s3.3 7.5 7.5 7.5zM84.5 88.2c-3.4 2.3-4.3 7-2 10.4s7 4.3 10.4 2c2.7-1.8 9-6.1 8.5-14.8-.3-5.2-4.9-12.5-8.8-17.8-5.6-7.7-10.5-12.3-14.4-13.8-3.7-1.4-7.5-1.4-11.4-.1-8 2.7-13.9 7.6-16.9 14.2-2.9 6.4-2.9 13.7.2 21.2 7.2 17.7 17.3 33.2 30.1 46.1 12.8 12.7 28.3 22.8 46 30 3.8 1.6 7.6 2.3 11.3 2.3 3.5 0 6.8-.7 10-2.1 6.6-3 11.5-8.9 14.2-16.9 1.3-3.9 1.3-7.7-.1-11.3-1.4-3.9-6.1-8.8-13.8-14.4-5.3-3.8-12.6-8.5-17.8-8.8-8.6-.4-12.9 5.9-14.7 8.5-2.3 3.4-1.5 8.1 2 10.4 3.4 2.3 8.1 1.5 10.4-2 .8-1.2 1.3-1.7 1.5-2 4.2 1.3 16.2 10.2 18.4 13.5.1.2.1.5-.1 1.1-.9 2.8-2.8 6.5-6.2 8.1-3.2 1.5-6.8.6-9.3-.4-15.8-6.5-29.7-15.5-41.1-26.7C79.7 113.6 70.7 99.8 64.2 84c-1-2.5-1.9-6.1-.4-9.3 1.6-3.4 5.2-5.3 8-6.2.6-.2.9-.2 1.2-.1 3.4 2.2 12.2 14.2 13.5 18.4-.2.1-.8.6-2 1.4z"/></svg>