<svg version="1.1" id="Слой_1" xmlns="http://www.w3.org/2000/svg" xmlns:xlink="http://www.w3.org/1999/xlink" x="0" y="0" viewBox="0 0 150 50" xml:space="preserve"><style>.st9{fill:none;stroke:#fff;stroke-miterlimit:10}</style><defs><path id="SVGID_1_" d="M50.9 31.8v-18c0-1.4 1.2-2.5 2.7-2.5h10.2c1.1 0 2.1.9 2.1 1.9 0 1.1-.9 1.9-2.1 1.9h-7.7v6.1h7.2c1.1 0 2.1.9 2.1 1.9 0 1.1-.9 1.9-2.1 1.9h-7.2v6.7c0 1.3-1.2 2.4-2.6 2.4-1.4.1-2.6-1-2.6-2.3"/></defs><use xlink:href="#SVGID_1_" overflow="visible" fill-rule="evenodd" clip-rule="evenodd" fill="#fff"/><clipPath id="SVGID_2_"><use xlink:href="#SVGID_1_" overflow="visible"/></clipPath><path clip-path="url(#SVGID_2_)" fill="#fff" d="M46.5 7h23.7v31.6H46.5z"/><defs><path id="SVGID_3_" d="M85.4 34.2c-1 0-1.9-.6-2.2-1.6l-1.1-3.2h-9.7l-1.1 3.2c-.3.9-1.2 1.6-2.2 1.6-1.7 0-2.8-1.6-2.2-3.1l6.8-17.3c.6-1.5 2-2.4 3.6-2.4s3.1 1 3.6 2.4l6.8 17.3c.5 1.5-.6 3.1-2.3 3.1zm-8.1-19l-3.5 10.4h7l-3.5-10.4z"/></defs><use xlink:href="#SVGID_3_" overflow="visible" fill-rule="evenodd" clip-rule="evenodd" fill="#fff"/><clipPath id="SVGID_4_"><use xlink:href="#SVGID_3_" overflow="visible"/></clipPath><path clip-path="url(#SVGID_4_)" fill="#fff" d="M62.3 7h29.9v31.6H62.3z"/><defs><path id="SVGID_5_" d="M104.7 11.4c1.8 0 2.9 1.8 2.1 3.4l-6 10.9v6.1c0 1.3-1.1 2.4-2.5 2.4s-2.5-1.1-2.5-2.4v-6.1l-6-10.9c-.8-1.5.3-3.4 2.1-3.4.9 0 1.8.5 2.2 1.3l4.2 8.7 4.2-8.7c.5-.8 1.3-1.3 2.2-1.3"/></defs><use xlink:href="#SVGID_5_" overflow="visible" fill-rule="evenodd" clip-rule="evenodd" fill="#fff"/><clipPath id="SVGID_6_"><use xlink:href="#SVGID_5_" overflow="visible"/></clipPath><path clip-path="url(#SVGID_6_)" fill="#fff" d="M85.2 7h26.3v31.6H85.2z"/><defs><path id="SVGID_7_" d="M133.4 26.6l3.3-13.5c.3-1 1.2-1.8 2.3-1.8 1.6 0 2.7 1.5 2.3 2.9l-5 17.6c-.4 1.4-1.7 2.3-3.2 2.3-1.5 0-2.8-1-3.2-2.3L126 18c-.1-.5-.8-.5-.9 0l-3.9 13.9c-.4 1.4-1.7 2.3-3.2 2.3-1.5 0-2.8-1-3.2-2.3l-5-17.6c-.4-1.5.7-2.9 2.3-2.9 1.1 0 2 .7 2.3 1.8l3.3 13.5c.1.4.7.4.8 0l3.5-12.6c.4-1.5 1.9-2.6 3.5-2.6s3.1 1.1 3.5 2.6l3.5 12.6c.2.3.8.3.9-.1"/></defs><use xlink:href="#SVGID_7_" overflow="visible" fill-rule="evenodd" clip-rule="evenodd" fill="#fff"/><clipPath id="SVGID_8_"><use xlink:href="#SVGID_7_" overflow="visible"/></clipPath><path clip-path="url(#SVGID_8_)" fill="#fff" d="M105.4 7h40.4v31.6h-40.4z"/><defs><path id="SVGID_9_" d="M145.1 10.8h4.9v23.3h-4.9z"/></defs><use xlink:href="#SVGID_9_" overflow="visible" fill-rule="evenodd" clip-rule="evenodd" fill="#fff"/><clipPath id="SVGID_10_"><use xlink:href="#SVGID_9_" overflow="visible"/></clipPath><g clip-path="url(#SVGID_10_)"><defs><path id="SVGID_11_" d="M144.9 10.4h5.3V35h-5.3z"/></defs><use xlink:href="#SVGID_11_" overflow="visible" fill="#fff"/><clipPath id="SVGID_12_"><use xlink:href="#SVGID_11_" overflow="visible"/></clipPath><g clip-path="url(#SVGID_12_)"><defs><path id="SVGID_13_" d="M147.6 34.1c-1.4 0-2.5-1.1-2.5-2.4V13.2c0-1.4 1.1-2.5 2.5-2.5s2.5 1.1 2.5 2.5v18.4c-.1 1.4-1.2 2.5-2.5 2.5"/></defs><use xlink:href="#SVGID_13_" overflow="visible" fill-rule="evenodd" clip-rule="evenodd" fill="#fff"/><clipPath id="SVGID_14_"><use xlink:href="#SVGID_13_" overflow="visible"/></clipPath><g clip-path="url(#SVGID_14_)"><defs><path id="SVGID_15_" d="M144.9 10.4h5.3V35h-5.3z"/></defs><use xlink:href="#SVGID_15_" overflow="visible" fill="#fff"/><clipPath id="SVGID_16_"><use xlink:href="#SVGID_15_" overflow="visible"/></clipPath><path clip-path="url(#SVGID_16_)" fill="#fff" d="M140.7 6.4h13.7v32.1h-13.7z"/></g></g></g><defs><path id="SVGID_17_" d="M9 7.5c-.4.5-1.1.5-1.6 0s-.5-1.3 0-1.8c1.5-1.6 3.2-2.7 5.1-3.6 1.9-.8 3.9-1.2 6-1.2s4.1.4 6 1.2c1.9.8 3.6 2.1 5.1 3.6.4.5.4 1.3-.1 1.8s-1.3.5-1.7 0c-1.3-1.3-2.7-2.3-4.3-3-1.6-.7-3.3-1.1-5.1-1.1-1.7 0-3.5.3-5.1 1.1-1.6.7-3 1.7-4.3 3"/></defs><use xlink:href="#SVGID_17_" overflow="visible" fill-rule="evenodd" clip-rule="evenodd" fill="#fff"/><clipPath id="SVGID_18_"><use xlink:href="#SVGID_17_" overflow="visible"/></clipPath><path clip-path="url(#SVGID_18_)" fill="#fff" d="M2.6-3.6h31.6v15.8H2.6z"/><path class="st9" d="M9 7.5c-.4.5-1.1.5-1.6 0s-.5-1.3 0-1.8c1.5-1.6 3.2-2.7 5.1-3.6 1.9-.8 3.9-1.2 6-1.2s4.1.4 6 1.2c1.9.8 3.6 2.1 5.1 3.6.4.5.4 1.3-.1 1.8s-1.3.5-1.7 0c-1.3-1.3-2.7-2.3-4.3-3-1.6-.7-3.3-1.1-5.1-1.1s-3.4.3-5 1.1c-1.7.7-3.1 1.7-4.4 3z"/><defs><path id="SVGID_19_" d="M11.8 11.9c-.5.5-1.3.5-1.8 0s-.5-1.3 0-1.7c1.1-1 2.3-1.8 3.7-2.4 1.4-.6 2.8-.8 4.3-.8s3 .3 4.3.8c1.4.6 2.6 1.3 3.7 2.4.5.5.5 1.3 0 1.7-.5.5-1.3.5-1.7 0-.8-.8-1.8-1.4-2.9-1.8-1.1-.4-2.2-.6-3.4-.6-1.2 0-2.3.2-3.4.6-1 .4-1.9 1-2.8 1.8"/></defs><clipPath id="SVGID_20_"><use xlink:href="#SVGID_19_" overflow="visible"/></clipPath><path clip-path="url(#SVGID_20_)" fill="#fff" d="M5.3 2.6h25.5v14H5.3z"/><path class="st9" d="M11.8 11.9c-.5.5-1.3.5-1.8 0s-.5-1.3 0-1.7c1.1-1 2.3-1.8 3.7-2.4 1.4-.6 2.8-.8 4.3-.8s3 .3 4.3.8c1.4.6 2.6 1.3 3.7 2.4.5.5.5 1.3 0 1.7-.5.5-1.3.5-1.7 0-.8-.8-1.8-1.4-2.9-1.8-1.1-.4-2.2-.6-3.4-.6-1.2 0-2.3.2-3.4.6-1 .4-1.9 1-2.8 1.8z"/><defs><path id="SVGID_21_" d="M0 11.6h35.7V50H0z"/></defs><clipPath id="SVGID_22_"><use xlink:href="#SVGID_21_" overflow="visible"/></clipPath><g clip-path="url(#SVGID_22_)"><defs><path id="SVGID_23_" d="M0 11.2h36v39.5H0z"/></defs><clipPath id="SVGID_24_"><use xlink:href="#SVGID_23_" overflow="visible"/></clipPath><g clip-path="url(#SVGID_24_)"><defs><path id="SVGID_25_" d="M6.4 14.2l-2.8-2.3c-.3-.3-.7-.4-1.1-.3-.4.1-.7.3-.9.7-1 2.3-1.6 4.8-1.6 7.4C0 25 1.8 30.3 4.8 34.1L15 47.3l1.5 2c.7 1 2.2 1 2.9 0 .5-.8 1.1-1.6 1.4-2l10.1-13c3.1-4 4.8-9.1 4.8-14.4 0-2.6-.6-5.1-1.7-7.4-.2-.4-.5-.6-.9-.7-.4-.1-.8 0-1.1.3l-2.8 2.3c-.4.4-.6.9-.4 1.4.5 1.4.8 2.8.8 4.2 0 6.5-5.4 11.8-11.9 11.8C11.3 31.6 6 26.3 6 19.7c0-1.4.3-2.9.8-4.2.2-.4 0-1-.4-1.3"/></defs><clipPath id="SVGID_26_"><use xlink:href="#SVGID_25_" overflow="visible"/></clipPath><g clip-path="url(#SVGID_26_)"><defs><path id="SVGID_27_" d="M0 11.2h36v39.5H0z"/></defs><clipPath id="SVGID_28_"><use xlink:href="#SVGID_27_" overflow="visible"/></clipPath><path clip-path="url(#SVGID_28_)" fill="#fff" d="M-4.4 7.2h44.5v47.2H-4.4z"/></g></g></g><defs><path id="SVGID_29_" d="M21.1 18.4c0 1.9-1.6 3.5-3.5 3.5s-3.5-1.6-3.5-3.5 1.6-3.5 3.5-3.5 3.5 1.6 3.5 3.5"/></defs><clipPath id="SVGID_30_"><use xlink:href="#SVGID_29_" overflow="visible"/></clipPath><path clip-path="url(#SVGID_30_)" fill="#fff" d="M9.7 10.5h15.8v15.8H9.7z"/></svg>