<svg version="1.1" id="Capa_1" xmlns="http://www.w3.org/2000/svg" x="0" y="0" viewBox="0 0 485.2 485.2" xml:space="preserve"><style>.st0{fill:#b01968}</style><path class="st0" d="M471.9 407.6L360.6 296.2C344 322 322 344 296.2 360.6l111.3 111.3c17.8 17.8 46.6 17.8 64.3 0 17.9-17.8 17.9-46.6.1-64.3zM363.9 182c0-100.5-81.5-182-182-182C81.5 0 0 81.5 0 182s81.5 182 182 182c100.4-.1 181.9-81.6 181.9-182zM182 318.4c-75.3 0-136.5-61.2-136.5-136.5S106.7 45.5 182 45.5 318.5 106.7 318.5 182 257.2 318.4 182 318.4z"/><path class="st0" d="M75.8 182h30.3c0-41.8 34-75.8 75.8-75.8V75.8c-58.5 0-106.1 47.6-106.1 106.2z"/></svg>