<svg xmlns="http://www.w3.org/2000/svg" xmlns:xlink="http://www.w3.org/1999/xlink" viewBox="0 0 500 400"><defs><path id="a" d="M451.2 303.1c8.3-4.8 8.3-12.5.1-17.3-8.3-4.8-21.7-4.8-30 0s-8.4 12.5-.1 17.3c8.3 4.8 21.7 4.8 30 0"/></defs><clipPath id="b"><use xlink:href="#a" overflow="visible"/></clipPath><g clip-path="url(#b)"><defs><path id="c" d="M-1554.4-1728.1H865.5v6049.9h-2419.9z"/></defs><clipPath id="d"><use xlink:href="#c" overflow="visible"/></clipPath><path clip-path="url(#d)" fill="#444" d="M407.5 274.6H465v39.6h-57.5z"/></g><defs><path id="e" d="M436.4 286c-4.9 0-9.7 1.1-13.1 3.1-2.8 1.6-4.3 3.5-4.3 5.4 0 1.8 1.5 3.7 4.2 5.3 3.4 1.9 8.1 3.1 13 3.1s9.7-1.1 13.1-3.1c2.8-1.6 4.3-3.5 4.3-5.4 0-1.8-1.5-3.7-4.2-5.3-3.4-2-8.1-3.1-13-3.1"/></defs><clipPath id="f"><use xlink:href="#e" overflow="visible"/></clipPath><g clip-path="url(#f)"><defs><path id="g" d="M-1554.4-1728.1H865.5v6049.9h-2419.9z"/></defs><clipPath id="h"><use xlink:href="#g" overflow="visible"/></clipPath><path clip-path="url(#h)" fill="#c9cbcc" d="M411.4 278.5h49.8v31.9h-49.8z"/></g><defs><path id="i" d="M126.1 184.4l24.9-36.5s58.5-41 119.6 1.2l-29.4 66-115.1-30.7z"/></defs><clipPath id="j"><use xlink:href="#i" overflow="visible"/></clipPath><g clip-path="url(#j)"><defs><path id="k" d="M-1554.4-1728.1H865.5v6049.9h-2419.9z"/></defs><clipPath id="l"><use xlink:href="#k" overflow="visible"/></clipPath><path clip-path="url(#l)" fill="#d4e6fd" d="M118.6 122.5h159.6v100.2H118.6z"/></g><defs><path id="m" d="M270.6 149.1L372.5 219v31l-131.4-34.8z"/></defs><clipPath id="n"><use xlink:href="#m" overflow="visible"/></clipPath><g clip-path="url(#n)"><defs><path id="o" d="M-1554.4-1728.1H865.5v6049.9h-2419.9z"/></defs><clipPath id="p"><use xlink:href="#o" overflow="visible"/></clipPath><path clip-path="url(#p)" fill="#acd0fc" d="M233.6 141.6h146.5v116H233.6z"/></g><defs><path id="q" d="M91 226.1l32.9-48.3s66.3-45.6 135.8 7l-34.3 77.1L91 226.1z"/></defs><clipPath id="r"><use xlink:href="#q" overflow="visible"/></clipPath><g clip-path="url(#r)"><defs><path id="s" d="M-1554.4-1728.1H865.5v6049.9h-2419.9z"/></defs><clipPath id="t"><use xlink:href="#s" overflow="visible"/></clipPath><path clip-path="url(#t)" fill="#fff" d="M83.4 151.9h183.8v117.6H83.4z"/></g><defs><path id="u" d="M259.7 184.8L499.9 309l.5 57.5-275-104.6z"/></defs><clipPath id="v"><use xlink:href="#u" overflow="visible"/></clipPath><g clip-path="url(#v)"><defs><path id="w" d="M-1554.4-1728.1H865.5v6049.9h-2419.9z"/></defs><clipPath id="x"><use xlink:href="#w" overflow="visible"/></clipPath><path clip-path="url(#x)" fill="#d4e6fd" d="M217.8 177.2h290.1V374H217.8z"/></g><defs><path id="y" d="M121.3 181.6c18.5-10 75.7-34.1 135.3 10.2l-4.9 10.9c-57.4-39.5-111.9-23.1-137-11.5l6.6-9.6z"/></defs><clipPath id="z"><use xlink:href="#y" overflow="visible"/></clipPath><g clip-path="url(#z)"><defs><path id="A" d="M-1554.4-1728.1H865.5v6049.9h-2419.9z"/></defs><clipPath id="B"><use xlink:href="#A" overflow="visible"/></clipPath><path clip-path="url(#B)" fill="#d4e6fd" d="M107.2 158.5h157v51.8h-157z"/></g><defs><path id="C" d="M95.6 219.3c19.4-9.8 80.6-34.1 144.8 8.8l-5 11.2c-60 14.5-113.2-23.7-141.8-12.5l-2.7-.7 4.7-6.8z"/></defs><clipPath id="D"><use xlink:href="#C" overflow="visible"/></clipPath><g clip-path="url(#D)"><defs><path id="E" d="M-1554.4-1728.1H865.5v6049.9h-2419.9z"/></defs><clipPath id="F"><use xlink:href="#E" overflow="visible"/></clipPath><path clip-path="url(#F)" fill="#d4e6fd" d="M83.4 196H248v54.2H83.4z"/></g><defs><path id="G" d="M102.1 209.7l6.5-9.5c19.4-10.1 78.3-33.7 139.7 10.2l-4.9 11c-59-39.1-115-23.3-141.3-11.7"/></defs><clipPath id="H"><use xlink:href="#G" overflow="visible"/></clipPath><g clip-path="url(#H)"><defs><path id="I" d="M-1554.4-1728.1H865.5v6049.9h-2419.9z"/></defs><clipPath id="J"><use xlink:href="#I" overflow="visible"/></clipPath><path clip-path="url(#J)" fill="#d4e6fd" d="M94.6 177.2h161.3V229H94.6z"/></g><defs><path id="K" d="M265.6 160.3l-4.4 9.9c-50-31.5-97-18.3-119.7-8.3l5.8-8.6c17.3-8.9 66.4-28.2 118.3 7"/></defs><clipPath id="L"><use xlink:href="#K" overflow="visible"/></clipPath><g clip-path="url(#L)"><defs><path id="M" d="M-1554.4-1728.1H865.5v6049.9h-2419.9z"/></defs><clipPath id="N"><use xlink:href="#M" overflow="visible"/></clipPath><path clip-path="url(#N)" fill="#508bfa" d="M133.9 132.4h139.2v45.4H133.9z"/></g><defs><path id="O" d="M256.6 191.8l-4.9 11 248.4 127.7v-10z"/></defs><clipPath id="P"><use xlink:href="#O" overflow="visible"/></clipPath><g clip-path="url(#P)"><defs><path id="Q" d="M-1554.4-1728.1H865.5v6049.9h-2419.9z"/></defs><clipPath id="R"><use xlink:href="#Q" overflow="visible"/></clipPath><path clip-path="url(#R)" fill="#508bfa" d="M244.1 184.3h263.5v153.9H244.1z"/></g><defs><path id="S" d="M248.3 210.5l-4.9 10.9 256.5 126.8v-8.3z"/></defs><clipPath id="T"><use xlink:href="#S" overflow="visible"/></clipPath><g clip-path="url(#T)"><defs><path id="U" d="M-1554.4-1728.1H865.5v6049.9h-2419.9z"/></defs><clipPath id="V"><use xlink:href="#U" overflow="visible"/></clipPath><path clip-path="url(#V)" fill="#508bfa" d="M235.8 202.9h271.6v152.8H235.8z"/></g><defs><path id="W" d="M140 397.3s6.1-14.1-15.8-43.6-63.3-78.8-82.5-95.6C22.5 241.3-4.4 220.5 2 212.4c6.4-8.1 34-6.7 95.6 2 61.6 8.7 194.6 32.9 247.2 58.7 52.5 25.8 57.2 29 57.2 29l4.4 24.6 93.9 33.4.5 39.3-360.8-2.1z"/></defs><clipPath id="X"><use xlink:href="#W" overflow="visible"/></clipPath><g clip-path="url(#X)"><defs><path id="Y" d="M-1554.4-1728.1H865.5v6049.9h-2419.9z"/></defs><clipPath id="Z"><use xlink:href="#Y" overflow="visible"/></clipPath><path clip-path="url(#Z)" fill="#508bfa" d="M-6.6 199.5h515v207.6h-515z"/></g><defs><path id="aa" d="M500.6 367.9L401.4 333l-4.4-24.6s.3-1.4-52.2-27.2-185.6-50-247.2-58.7c-60.3-8.5-88.1-10-95.2-2.5-1.6-3-1.9-5.6-.4-7.5 6.4-8.1 34-6.7 95.6 2 61.6 8.7 194.7 32.9 247.2 58.7 52.5 25.8 57.2 29 57.2 29l4.4 24.6 93.9 33.7.3 7.4z"/></defs><clipPath id="ab"><use xlink:href="#aa" overflow="visible"/></clipPath><g clip-path="url(#ab)"><defs><path id="ac" d="M-1554.4-1728.1H865.5v6049.9h-2419.9z"/></defs><clipPath id="ad"><use xlink:href="#ac" overflow="visible"/></clipPath><path clip-path="url(#ad)" fill="#d4e6fd" d="M-6.6 199.5h514.7v176H-6.6z"/></g><defs><path id="ae" d="M266.4 160.5l107.4 68.3v10.7L262 170.4z"/></defs><clipPath id="af"><use xlink:href="#ae" overflow="visible"/></clipPath><g clip-path="url(#af)"><defs><path id="ag" d="M-1554.4-1728.1H865.5v6049.9h-2419.9z"/></defs><clipPath id="ah"><use xlink:href="#ag" overflow="visible"/></clipPath><path clip-path="url(#ah)" fill="#508bfa" d="M254.5 152.9h126.9V247H254.5z"/></g><defs><path id="ai" d="M87.6 306.2h413.3v94H87.6z"/></defs><clipPath id="aj"><use xlink:href="#ai" overflow="visible"/></clipPath><g clip-path="url(#aj)"><defs><path id="ak" d="M-1554.4-1728.1H865.5v6049.9h-2419.9z"/></defs><clipPath id="al"><use xlink:href="#ak" overflow="visible"/></clipPath><g clip-path="url(#al)"><defs><path id="am" d="M86.6 306.1H501v95.3H86.6z"/></defs><clipPath id="an"><use xlink:href="#am" overflow="visible"/></clipPath><g clip-path="url(#an)"><defs><path id="ao" d="M499.7 376.7l1.2 24.1-380.3-1.3s23-24.1-33.8-93.2l412.9 70.4z"/></defs><clipPath id="ap"><use xlink:href="#ao" overflow="visible"/></clipPath><g clip-path="url(#ap)"><defs><path id="aq" d="M86.6 306.1H501v95.3H86.6z"/></defs><clipPath id="ar"><use xlink:href="#aq" overflow="visible"/></clipPath><path clip-path="url(#ar)" fill="#66a0fb" d="M79.4 298.6h429.2v109.7H79.4z"/></g></g></g></g></svg>