<svg version="1.1" id="Слой_1" xmlns="http://www.w3.org/2000/svg" x="0" y="0" viewBox="0 0 500 400" xml:space="preserve"><style>.st0{fill:#cee8ff}.st1{fill:#508bfa}.st3{fill:#fff}</style><path class="st0" d="M161.7 352.2l18.3 5.1 23.4-74.6s-53.7-16.8-55.6-16.6c-1.8.2-11.7 32-11.7 32l25.6 54.1z"/><path class="st1" d="M16.7 273.5c2.4 22 10.5 39.1 18.1 38.3 7.5-.8 11.7-19.3 9.2-41.3-2.4-22-10.5-39.1-18-38.3-7.6.8-11.7 19.3-9.3 41.3z"/><path class="st1" d="M33.1 311.6s4.3 2.4 26.1-2.5c7.1-1.6 1.2-11.9 1.1-21.9 0-18-26.6-27.2-26.6-27.2l-.6 51.6zm133.4 36.3c5.2 30.5 20.6 53.3 34.3 50.9 13.7-2.4 20.7-29 15.5-59.4-5.2-30.5-20.6-53.3-34.3-50.9-13.8 2.3-20.7 28.9-15.5 59.4z"/><path class="st1" d="M197.3 399s34.2 6.5 46.5-16.3c-12.5-35.7-25.7-48.3-25.7-48.3l-26.2 31.3 5.4 33.3z"/><path d="M499.9 329.9s-5.1 13.9-21.4 22.7c-30.2 16.3-137.6 31.6-153.4 36-15.7 4.4-70.1 3.9-102.2-5.5 0 0-12.9-96.5-49.3-106.5-36.5-9.9-11.9 75.5-11.9 75.5s-114-50.7-113.1-52.8c.8-2.1-10.5-71.2-28.9-72.1-18.4-.8-3.8 49.3-3.8 49.3s-20.1-26.7-14.7-74.9c0 0-.8-21.8 4.6-21.8 0 0 3.8-13 15.9-7.5 0 0 8.4-27.2 56.1-44.4 47.8-17.2 177.2-15.1 196.9-6.7 19.7 8.4 37.3 14.2 95.5 67 0 0 99.3 19.9 114.8 65.3 0 0 10.9 9.3 8.4 40.7 0 0 3.3 19.7-1.7 23.9.1.1 9.3 6.3 8.2 11.8z" fill="#66a0fb"/><path class="st0" d="M149.8 224.3l-119.4-41s4.4-17.2 8.5-24.7 28.6-34.6 74.8-16.3c18.3 7.2 36.1 82 36.1 82zm206.8-36.8s-182.3 29.3-184.4 28.1c-2.1-1.3-32.3-59.5-28.1-64.5 4.2-5 141.6-18.7 151.3-16.8 9.6 1.9 67.9 49.9 61.2 53.2z"/><path class="st1" d="M98.5 137.5s-10.1 23.4-8.6 65.8l-10.9-1-.1-2.3s1.3-38.4 12.7-63.4c6.1-3.5 6.9.9 6.9.9zM59.9 141s-6.6 11.4-12.6 48.1c-2.3 1.5-4.6.9-4.6.9l1.9-1.8s4.4-28.6 12.8-46c2.3-3.7 2.5-1.2 2.5-1.2z"/><path class="st0" d="M461.8 259.2s4.7-7.3 1.6-16c-3.8-10.7-21.9-30.4-21.9-30.4 19.9 10.2 37.8 23.7 43.7 40.9 0 0 1.6 18.2-21.6 26.7 0-.1.5-9.2-1.8-21.2z"/><path class="st0" d="M457.4 284.3s1.6-23.6-1.9-24.2c-3.5-.6-21.1 7.9-50 12.1-28.9 4.2-69 8.1-71 9.6-4.7 3.5 17.1 27.3 22.5 28 5.4.6 34 4.1 39.1 3.1 5-.9 31.7-5 36.1-7.2 4.5-2.2 25-15.7 25.2-21.4zm-123.5 23.1s-14.2-21.4-20.9-23c-6.7-1.7-79.2-35.2-85.1-33.1-5.9 2.1 7.2 40.2 22.2 47.8 15.1 7.4 87.7 13.9 83.8 8.3z"/><path class="st3" d="M494.2 323c-.6.3-14.9 17.3-15.4 15.9-.6-1.4 4.5-26.4 4.5-26.4l2.4 11.9 8.6-2"/><path class="st0" d="M328.7 373.1s-49.6.6-58.7-.8c-10.3-1.7-29.3-1.9-36.9-35.2 0 0 9.6 6.1 25.8 11.1 16.2 5 59.3 8.2 59.3 8.2l10.5 16.7z"/><path class="st3" d="M235.9 359.3c-6.7-20.5-24.3-93.9-57-103.5-32.7-9.6-31 46.9-31 46.9s2.9-47.3 29.7-40.2c26.9 7.1 58.3 96.8 58.3 96.8zM46.7 264s-9.6-53.8-26.8-56.1C2.7 205.5 7 250 7 250s-.5-35.5 12.4-34.2c13 1.3 27.3 48.2 27.3 48.2z"/><path d="M146.6 212.1H138s-5.4-16.2-11.1-16.2c-5.7 0-25.6.8-27.4 3.8-1.7 2.9-4.5 23.3 5.6 23.3s30.6 2.7 34.5-.7l11.9 5.3-1.8-12.8-3.1-2.7z" fill="#7aacfc"/><path class="st3" d="M102.6 201.5c.3-.4 1-.8 2.1-1.1-1.3 3.9-2.6 13.6 2.2 15.6 7.3 3.1 21.8 2.7 25.2 1.4-3.1 2.6-17.3 2.3-25.2 2.3s-5.7-15.9-4.3-18.2zm59.4 8.6s-18.2-45.5-26.7-65-42.2-17.6-57.4-15.1c0 0 41.7-6 52.1 15.7 10.4 21.7 27.7 71.6 27.7 71.6l4.3-7.2z"/><path class="st0" d="M19.2 273c2 17.8 8.1 31.7 13.7 31.1 5.6-.6 8.5-15.6 6.5-33.4-2-17.8-8.1-31.7-13.7-31.1-5.6.7-8.5 15.6-6.5 33.4zm150.6 74.9c4.1 24.2 15.7 42.3 25.9 40.6 10.2-1.7 15-22.7 10.9-46.9s-15.7-42.3-25.9-40.6c-10.2 1.7-15 22.7-10.9 46.9zm281.5-36.7l-78 16.6v22.8l78-17.6z"/><path class="st0" d="M161.4 337.1s-10.3-41.6 0-52.4c7.6-8 18.6 0 18.6 0s-22.9-13.4-18.6 52.4z"/></svg>