<svg xmlns="http://www.w3.org/2000/svg" xmlns:xlink="http://www.w3.org/1999/xlink" viewBox="0 0 500 400"><defs><path id="a" d="M5.8 268.5c46 7.9 91.9-30.6 131.3 39 5.6 11.1 7.2 33.6 7.7 56.3-47.2-13.3-140.1-43.7-142-45.3-3.3-2.8 8.6-15.7 8.7-25.4.1-3.7-13.1-13.7-5.7-24.6"/></defs><clipPath id="b"><use xlink:href="#a" overflow="visible"/></clipPath><g clip-path="url(#b)"><defs><path id="c" d="M-1080.6-1881.6h2561.7v6404.2h-2561.7z"/></defs><clipPath id="d"><use xlink:href="#c" overflow="visible"/></clipPath><path clip-path="url(#d)" fill="#66a0fb" d="M-5.8 256.9h158.6v114.9H-5.8z"/></g><defs><path id="e" d="M3.9 294.6c4.3.1 17.8 12.3 18.1 27.7.3 13.9-3.6 25.9-7.3 27.8L.6 351.2l1.7-2.8c-3-4 3.1-14.1 2.8-26.1-.3-15.3-5.5-27.8-1.2-27.7"/></defs><clipPath id="f"><use xlink:href="#e" overflow="visible"/></clipPath><g clip-path="url(#f)"><defs><path id="g" d="M-1080.6-1881.6h2561.7v6404.2h-2561.7z"/></defs><clipPath id="h"><use xlink:href="#g" overflow="visible"/></clipPath><path clip-path="url(#h)" fill="#508bfa" d="M-7.3 286.6h37.4v72.6H-7.3z"/></g><defs><path id="i" d="M123.8 301.4c7.5.2 39.5 22.5 40 49.3.5 24.2-4 44.1-10.4 47.6l-35.3 1.7 2.9-4.8c-5.3-7-9.3-24.8-9.8-45.6-.4-26.9 5.2-48.4 12.6-48.2"/></defs><clipPath id="j"><use xlink:href="#i" overflow="visible"/></clipPath><g clip-path="url(#j)"><defs><path id="k" d="M-1080.6-1881.6h2561.7v6404.2h-2561.7z"/></defs><clipPath id="l"><use xlink:href="#k" overflow="visible"/></clipPath><path clip-path="url(#l)" fill="#508bfa" d="M103.3 293.4h68.6v114.5h-68.6z"/></g><defs><path id="m" d="M101.3 350.5c.6 27.1 8 49.2 16.4 49.4 8.4.2 14.7-21.6 14.1-48.7-.6-27.1-8-49.2-16.4-49.4-8.4-.2-14.7 21.6-14.1 48.7"/></defs><clipPath id="n"><use xlink:href="#m" overflow="visible"/></clipPath><g clip-path="url(#n)"><defs><path id="o" d="M-1080.6-1881.6h2561.7v6404.2h-2561.7z"/></defs><clipPath id="p"><use xlink:href="#o" overflow="visible"/></clipPath><path clip-path="url(#p)" fill="#66a0fb" d="M93.3 293.8h46.5v114.1H93.3z"/></g><defs><path id="q" d="M106.7 351.2c.3 15.8 4.2 28.8 8.6 28.9 4.4.1 7.7-12.6 7.4-28.5-.3-15.8-4.2-28.8-8.6-28.9-4.4 0-7.7 12.7-7.4 28.5"/></defs><clipPath id="r"><use xlink:href="#q" overflow="visible"/></clipPath><g clip-path="url(#r)"><defs><path id="s" d="M-1080.6-1881.6h2561.7v6404.2h-2561.7z"/></defs><clipPath id="t"><use xlink:href="#s" overflow="visible"/></clipPath><path clip-path="url(#t)" fill="#d4e6fd" d="M98.7 314.8h32.1v73.4H98.7z"/></g><defs><path id="u" d="M313.4 292.5c7.5.2 37.8 22 38.4 48.8.5 24.2-2.6 44.7-9 48.2l-35 1.6 2.9-4.8c-5.3-7-9.3-24.8-9.8-45.6-.6-26.8 5-48.4 12.5-48.2"/></defs><clipPath id="v"><use xlink:href="#u" overflow="visible"/></clipPath><g clip-path="url(#v)"><defs><path id="w" d="M-1080.6-1881.6h2561.7v6404.2h-2561.7z"/></defs><clipPath id="x"><use xlink:href="#w" overflow="visible"/></clipPath><path clip-path="url(#x)" fill="#508bfa" d="M292.9 284.5h67V399h-67z"/></g><defs><path id="y" d="M292.7 342.3c.6 26.7 7.1 48.6 14.6 48.8 7.5.2 13.1-21.3 12.5-48.1-.6-26.7-7.1-48.6-14.6-48.8-7.5-.2-13.1 21.3-12.5 48.1"/></defs><clipPath id="z"><use xlink:href="#y" overflow="visible"/></clipPath><g clip-path="url(#z)"><defs><path id="A" d="M-1080.6-1881.6h2561.7v6404.2h-2561.7z"/></defs><clipPath id="B"><use xlink:href="#A" overflow="visible"/></clipPath><path clip-path="url(#B)" fill="#66a0fb" d="M284.6 286.2h43.1v112.9h-43.1z"/></g><defs><path id="C" d="M23.6 297.1c4.7.1 23.6 13.8 24 30.5.3 15.1-2.5 27.6-6.5 29.7l-21 1.4 1.8-3c-3.3-4.4-5.8-15.5-6.1-28.5-.4-16.8 3.1-30.2 7.8-30.1"/></defs><clipPath id="D"><use xlink:href="#C" overflow="visible"/></clipPath><g clip-path="url(#D)"><defs><path id="E" d="M-1080.6-1881.6h2561.7v6404.2h-2561.7z"/></defs><clipPath id="F"><use xlink:href="#E" overflow="visible"/></clipPath><path clip-path="url(#F)" fill="#508bfa" d="M7.7 289.1h47.9v77.6H7.7z"/></g><defs><path id="G" d="M10 327c.4 17.2 4.7 31.5 10.1 31.6 5.4.1 9-13.4 8.6-30.7-.4-17.2-4.7-31.6-10.1-31.8-5.4 0-9 13.7-8.6 30.9"/></defs><clipPath id="H"><use xlink:href="#G" overflow="visible"/></clipPath><g clip-path="url(#H)"><defs><path id="I" d="M-1080.6-1881.6h2561.7v6404.2h-2561.7z"/></defs><clipPath id="J"><use xlink:href="#I" overflow="visible"/></clipPath><path clip-path="url(#J)" fill="#66a0fb" d="M2 288.3h34.7v78.4H2z"/></g><defs><path id="K" d="M12.9 328.3c.2 9.9 2.6 18 5.4 18.1 2.8.1 4.8-7.9 4.6-17.8-.2-9.9-2.6-18-5.4-18.1-2.8-.1-4.9 7.9-4.6 17.8"/></defs><clipPath id="L"><use xlink:href="#K" overflow="visible"/></clipPath><g clip-path="url(#L)"><defs><path id="M" d="M-1080.6-1881.6h2561.7v6404.2h-2561.7z"/></defs><clipPath id="N"><use xlink:href="#M" overflow="visible"/></clipPath><path clip-path="url(#N)" fill="#fff" d="M4.8 302.5h26.1v51.9H4.8z"/></g><defs><path id="O" d="M136.5 308.7c-39.4-69.3-89.1-31.1-135.1-39 12.1-17.9 28.1-40.4 28.5-50.8.6-16.7-.9-39.3 3.6-42.1 4.5-2.8 71.3-52.2 105.6-68.2 34.4-16 225.9-10.9 231.7 7.2 5.8 18.1 19.7 111.2 23.3 168.5 2.6 40.9 2.2 44.5 1.8 77.7 0 0-195.9 8.2-229.7 8.2-2.2 0-10.4-2.1-22.3-5.4-.1-22.6-1.8-45.1-7.4-56.1"/></defs><clipPath id="P"><use xlink:href="#O" overflow="visible"/></clipPath><g clip-path="url(#P)"><defs><path id="Q" d="M-1080.6-1881.6h2561.7v6404.2h-2561.7z"/></defs><clipPath id="R"><use xlink:href="#Q" overflow="visible"/></clipPath><path clip-path="url(#R)" fill="#fff" d="M-6.5 91.1h410.9v287.2H-6.5z"/></g><defs><path id="S" d="M165.1 267.9c-2-46.5-8.5-124.9-14.3-143-5.8-18.1-7.4-22.7-41.8-6.7-28 13.1-86.2 52-109.2 67.5v109.4c4.1 1.9 7.5 14.4 7.9 29.4v4.8c.8.3 1.6.5 2.4.8 0-.5 0-1.1-.1-1.6-.4-18.3 3.4-33 8.6-32.9 5.1.1 9.6 15.1 10 33.3 0 2.4 0 4.7-.1 7 21.6 6.8 48.4 15.2 72.6 22.7-.1-1.3-.1-2.7-.1-4-.6-29.4 5.5-53.1 13.8-52.9 8.2.2 15.4 24.2 16 53.7.1 4.3 0 8.4-.1 12.3 21 6.5 35.8 11 35.8 11s.4-67.1-1.4-110.8"/></defs><clipPath id="T"><use xlink:href="#S" overflow="visible"/></clipPath><g clip-path="url(#T)"><defs><path id="U" d="M-1080.6-1881.6h2561.7v6404.2h-2561.7z"/></defs><clipPath id="V"><use xlink:href="#U" overflow="visible"/></clipPath><path clip-path="url(#V)" fill="#66a0fb" d="M-8.2 100.4h182.6v286.4H-8.2z"/></g><defs><path id="W" d="M161.2 115c6.9-5.4 197.7-4.2 203.5-2.7 2.3.6 4.4 1.7 6.3 3.6 1.5 2.7 2.8 5.9 3.9 9.3 2 6.2 4.4 15.9 6.9 29.7 3.3 20.5 7.7 52.5 10.8 97 .3 5.3.7 10.9 1 16.6.1 5.1-.1 14.9-3.1 16.4-4.1 2-200.6 3.7-209.9-3-9.4-6.6-9.6-12.8-11.3-36.4-1.7-23.6-6.6-86.8-9.3-100.1-2.8-13.2-5.7-25 1.2-30.4"/></defs><clipPath id="X"><use xlink:href="#W" overflow="visible"/></clipPath><g clip-path="url(#X)"><defs><path id="Y" d="M-1080.6-1881.6h2561.7v6404.2h-2561.7z"/></defs><clipPath id="Z"><use xlink:href="#Y" overflow="visible"/></clipPath><path clip-path="url(#Z)" fill="#66a0fb" d="M148.9 103h252.6v191.7H148.9z"/></g><defs><path id="aa" d="M337.8 104.6s-170.8 0-197.1 4.3C126.3 112.4-.1 186-.1 186l.3-8.4s99.2-70.3 133-83.4C166.9 81 331 72 337.8 104.6"/></defs><clipPath id="ab"><use xlink:href="#aa" overflow="visible"/></clipPath><g clip-path="url(#ab)"><defs><path id="ac" d="M-1080.6-1881.6h2561.7v6404.2h-2561.7z"/></defs><clipPath id="ad"><use xlink:href="#ac" overflow="visible"/></clipPath><path clip-path="url(#ad)" fill="#d4e6fd" d="M-8.1 74.2h354V194h-354z"/></g><defs><path id="ae" d="M103.1 323.4c-1.6 8.8-2.4 19.5-2.2 31.3 0 1.3.1 2.7.1 4-5.7-1.8-11.5-3.6-17.3-5.4-9.9-75.2-22.4-155.3-51.5-189.1 3.2-2.1 6.4-4.2 9.7-6.3 17.8 24.3 33.7 56 46.2 97.6"/></defs><clipPath id="af"><use xlink:href="#ae" overflow="visible"/></clipPath><g clip-path="url(#af)"><defs><path id="ag" d="M-1080.6-1881.6h2561.7v6404.2h-2561.7z"/></defs><clipPath id="ah"><use xlink:href="#ag" overflow="visible"/></clipPath><path clip-path="url(#ah)" fill="#d4e6fd" d="M24.3 149.9h86.9v216.9H24.3z"/></g><defs><path id="ai" d="M21 171.6c2.5-1.7 5.2-3.4 7.9-5.2 24.8 37.7 31.2 113.7 38.7 181.9-5.9-1.8-8.1-2.6-13.8-4.4-2.6-65.5-9.3-139.5-32.8-172.3"/></defs><clipPath id="aj"><use xlink:href="#ai" overflow="visible"/></clipPath><g clip-path="url(#aj)"><defs><path id="ak" d="M-1080.6-1881.6h2561.7v6404.2h-2561.7z"/></defs><clipPath id="al"><use xlink:href="#ak" overflow="visible"/></clipPath><path clip-path="url(#al)" fill="#d4e6fd" d="M13 158.4h62.6v197.9H13z"/></g><defs><path id="am" d="M397 341.3s-.9 2.5-13.9 2.7c-13 .2-209.8 3.2-216.5-.5-.1 12.4-3.6 33.8-.4 35.3 4 1.8 207-1 216.2-2.3 9.3-1.2 12.7-2.7 13.9-11.3 1.1-8.7.7-23.9.7-23.9"/></defs><clipPath id="an"><use xlink:href="#am" overflow="visible"/></clipPath><g clip-path="url(#an)"><defs><path id="ao" d="M-1080.6-1881.6h2561.7v6404.2h-2561.7z"/></defs><clipPath id="ap"><use xlink:href="#ao" overflow="visible"/></clipPath><path clip-path="url(#ap)" fill="#d4e6fd" d="M156.8 333.3H405v54.1H156.8z"/></g><defs><path id="aq" d="M391.8 242.4c.2 3.1.5 6.3.7 9.6.3 5.3.7 10.9 1 16.6.1 5.1-.1 14.9-3.1 16.4-4.1 2-200.6 3.7-209.9-3-8.9-6.3-9.6-12.2-11.1-32.9 29.3-18.9 218.4-10.1 222.4-6.7"/></defs><clipPath id="ar"><use xlink:href="#aq" overflow="visible"/></clipPath><g clip-path="url(#ar)"><defs><path id="as" d="M-1080.6-1881.6h2561.7v6404.2h-2561.7z"/></defs><clipPath id="at"><use xlink:href="#as" overflow="visible"/></clipPath><path clip-path="url(#at)" fill="#508bfa" d="M161.4 229.4h240.1v65.4H161.4z"/></g><defs><path id="au" d="M219.3 331s-20.9-4-34.8-14.7c-10.9-8.4-16.8 5.7-14.1 16.4 2.7 10.7 33.4 8.2 43.2 7.4 10-.9 11.6-7.7 5.7-9.1"/></defs><clipPath id="av"><use xlink:href="#au" overflow="visible"/></clipPath><g clip-path="url(#av)"><defs><path id="aw" d="M-1080.6-1881.6h2561.7v6404.2h-2561.7z"/></defs><clipPath id="ax"><use xlink:href="#aw" overflow="visible"/></clipPath><path clip-path="url(#ax)" fill="#d4e6fd" d="M161.8 305.7h68.9v43.2h-68.9z"/></g><defs><path id="ay" d="M3.8 324.6c-.2-7.9-1.9-14.5-4-16.1v32.4c2.4-.5 4.2-7.6 4-16.3"/></defs><clipPath id="az"><use xlink:href="#ay" overflow="visible"/></clipPath><g clip-path="url(#az)"><defs><path id="aA" d="M-1080.6-1881.6h2561.7v6404.2h-2561.7z"/></defs><clipPath id="aB"><use xlink:href="#aA" overflow="visible"/></clipPath><path clip-path="url(#aB)" fill="#fff" d="M-8.2 300.4h20v48.4h-20z"/></g><defs><path id="aC" d="M7.5 323.6c-.3-14.6-3.7-26.7-7.7-28.4v56.6c.1 0 .2.1.3.1 4.5.1 7.8-12.5 7.4-28.3"/></defs><clipPath id="aD"><use xlink:href="#aC" overflow="visible"/></clipPath><g clip-path="url(#aD)"><defs><path id="aE" d="M-1080.6-1881.6h2561.7v6404.2h-2561.7z"/></defs><clipPath id="aF"><use xlink:href="#aE" overflow="visible"/></clipPath><path clip-path="url(#aF)" fill="#66a0fb" d="M-8.2 287.2h23.8v72.7H-8.2z"/></g></svg>