<svg xmlns="http://www.w3.org/2000/svg" xmlns:xlink="http://www.w3.org/1999/xlink" viewBox="0 0 500 400"><defs><path id="a" d="M229.1 387c-2.2-44.5-4.5-89-6.7-133.5-.3-6.7-5.2-15.7-8.4-14.6C148 261 66.4 288 .4 310v89c.9.6 1.9.9 3 .9 67.7-.1 152.9-.8 220.6-.9 3.1.1 5.5-5.3 5.1-12"/></defs><clipPath id="b"><use xlink:href="#a" overflow="visible"/></clipPath><g clip-path="url(#b)"><defs><path id="c" d="M-348.2-1633.8h2311.4v5778.5H-348.2z"/></defs><clipPath id="d"><use xlink:href="#c" overflow="visible"/></clipPath><path clip-path="url(#d)" fill="#d4e6fd" d="M-6.9 231.7h243.2v175.6H-6.9z"/></g><defs><path id="e" d="M331.2 201.8s83-12.8 115.4 30c32.5 42.8 71.6 146.2 36 145.6-35.6-.7-58.7 21.5-58.7 21.5l-92.7-197.1z"/></defs><clipPath id="f"><use xlink:href="#e" overflow="visible"/></clipPath><g clip-path="url(#f)"><defs><path id="g" d="M-348.2-1633.8h2311.4v5778.5H-348.2z"/></defs><clipPath id="h"><use xlink:href="#g" overflow="visible"/></clipPath><path clip-path="url(#h)" fill="#fff" d="M324 192.8h180v213.3H324z"/></g><defs><path id="i" d="M413.1 375.9l10.8 22.9s51.9-1.8 65.1-14.4c16.7-15.9 10.8-29.5 4.7-51.6-25.2 3-74.5 9.7-74.5 9.7l-6.1 33.4z"/></defs><clipPath id="j"><use xlink:href="#i" overflow="visible"/></clipPath><g clip-path="url(#j)"><defs><path id="k" d="M-348.2-1633.8h2311.4v5778.5H-348.2z"/></defs><clipPath id="l"><use xlink:href="#k" overflow="visible"/></clipPath><path clip-path="url(#l)" fill="#66a0fb" d="M405.9 325.6h101.3v80.5H405.9z"/></g><defs><path id="m" d="M423.9 398.9l-205.9.3c-3.2 0-6.2-5.4-6.5-12-2.3-44.4-4.6-88.8-6.8-133.2-.3-6.6 2-12.9 5.2-14 37.2-12.2 74.5-24.4 111.7-36.6 19-6.2 44.2 6.1 65.6 37.6 21.3 30.9 38.8 81 41.7 138.5 0 .7.1 1.3.1 2 .4 9.5-1.8 17.4-5.1 17.4"/></defs><clipPath id="n"><use xlink:href="#m" overflow="visible"/></clipPath><g clip-path="url(#n)"><defs><path id="o" d="M-348.2-1633.8h2311.4v5778.5H-348.2z"/></defs><clipPath id="p"><use xlink:href="#o" overflow="visible"/></clipPath><path clip-path="url(#p)" fill="#d4e6fd" d="M197.4 194.6h238.8v211.8H197.4z"/></g><defs><path id="q" d="M211.5 387.1c.3 6.6-19.1 12-15.8 12 68.6-.1 159.6-.2 228.3-.3 3.2 0 9.7-6.6 9.3-16.2 0-.7-1.9-2.3-2-3-.7-13.1-4.1-26-5.6-38.3-71.9 6-143.7 12-215.6 18 .4 9.3.9 18.5 1.4 27.8"/></defs><clipPath id="r"><use xlink:href="#q" overflow="visible"/></clipPath><g clip-path="url(#r)"><defs><path id="s" d="M-348.2-1633.8h2311.4v5778.5H-348.2z"/></defs><clipPath id="t"><use xlink:href="#s" overflow="visible"/></clipPath><path clip-path="url(#t)" fill="#66a0fb" d="M188 334.1h252.4v72.3H188z"/></g><defs><path id="u" d="M425.7 342.3c-.3-2.4.2 1.4-.1-1-.4-3.4-.8-6.7-1.2-10-17.8-9.8-56-20.9-84.4-16.9-43.8 6.1-89.9 12.4-133.6 18.5.2 3.8.5 7.6.7 11.4 43.8-5 89.9-10.3 133.7-15.3 29.7-3.6 68.7 6.2 84.9 13.3"/></defs><clipPath id="v"><use xlink:href="#u" overflow="visible"/></clipPath><g clip-path="url(#v)"><defs><path id="w" d="M-348.2-1633.8h2311.4v5778.5H-348.2z"/></defs><clipPath id="x"><use xlink:href="#w" overflow="visible"/></clipPath><path clip-path="url(#x)" fill="#66a0fb" d="M199.1 306.4H433v45.1H199.1z"/></g><defs><path id="y" d="M343.2 225.3c-39 11-78.1 21.9-117.1 32.9-1.4.4-2.9.8-4.3 1.2-3.6 1-7.1 2-10.7 3-2.3.7-4 5.1-3.8 9.9l1.8 36c.2 4.8 2.4 8.4 4.7 8l10.8-1.8c1.4-.2 2.9-.5 4.3-.7 39.3-6.7 78.5-13.3 117.8-20 2.3-.4 4-5.8 3.6-12-.8-15.5-1.6-30.9-2.4-46.4-.2-6.2-2.4-10.8-4.7-10.1"/></defs><clipPath id="z"><use xlink:href="#y" overflow="visible"/></clipPath><g clip-path="url(#z)"><defs><path id="A" d="M-348.2-1633.8h2311.4v5778.5H-348.2z"/></defs><clipPath id="B"><use xlink:href="#A" overflow="visible"/></clipPath><path clip-path="url(#B)" fill="#66a0fb" d="M200.1 218h157.5v105.6H200.1z"/></g><defs><path id="C" d="M186.7 269.7c-3.4.9-6.7 1.9-10.1 2.8-1.6.4-2.7 3.3-2.5 6.3l1.2 22.5c.2 3 1.6 5.2 3.1 4.9 3.4-.7 6.7-1.4 10.1-2.1 1.6-.3 2.7-3.1 2.5-6.3-.4-7.8-.8-15.6-1.2-23.3-.1-3-1.5-5.2-3.1-4.8"/></defs><clipPath id="D"><use xlink:href="#C" overflow="visible"/></clipPath><g clip-path="url(#D)"><defs><path id="E" d="M-348.2-1633.8h2311.4v5778.5H-348.2z"/></defs><clipPath id="F"><use xlink:href="#E" overflow="visible"/></clipPath><path clip-path="url(#F)" fill="#66a0fb" d="M166.9 262.5h31.4v51.1h-31.4z"/></g><defs><path id="G" d="M366.8 230.5c-1.6.4-2.7 4.3-2.4 8.5.5 10.7 1.1 21.3 1.6 32 .2 4.3 1.7 7.5 3.2 7.3 3.4-.6 6.8-1.3 10.1-1.9 1.6-.3 2.7-4.1 2.4-8.5-.1-1.5-.1-2.9-.2-4.4-1-20.1-7.6-35-14.7-33"/></defs><clipPath id="H"><use xlink:href="#G" overflow="visible"/></clipPath><g clip-path="url(#H)"><defs><path id="I" d="M-348.2-1633.8h2311.4v5778.5H-348.2z"/></defs><clipPath id="J"><use xlink:href="#I" overflow="visible"/></clipPath><path clip-path="url(#J)" fill="#66a0fb" d="M357.1 223.1H389v62.4h-31.9z"/></g><defs><path id="K" d="M396.8 237.1c-2.5-4-.7-10.9 2.9-10.8l26.7.5c8.6.2 27.3 25.6 31.9 40.5 4.6 14.9-32 9.3-39.4 9.2-6.2-.1-10.2-20.3-22.1-39.4"/></defs><clipPath id="L"><use xlink:href="#K" overflow="visible"/></clipPath><g clip-path="url(#L)"><defs><path id="M" d="M-348.2-1633.8h2311.4v5778.5H-348.2z"/></defs><clipPath id="N"><use xlink:href="#M" overflow="visible"/></clipPath><path clip-path="url(#N)" fill="#66a0fb" d="M388.4 219.1h77.5v65.8h-77.5z"/></g><defs><path id="O" d="M424.4 331.3s56.9 11.6 66.4-7.7l3.1 9.8s-4.1 20.4-68.2 9l-1.3-11.1z"/></defs><clipPath id="P"><use xlink:href="#O" overflow="visible"/></clipPath><g clip-path="url(#P)"><defs><path id="Q" d="M-348.2-1633.8h2311.4v5778.5H-348.2z"/></defs><clipPath id="R"><use xlink:href="#Q" overflow="visible"/></clipPath><path clip-path="url(#R)" fill="#66a0fb" d="M417.2 316.4h84v36.7h-84z"/></g><defs><path id="S" d="M431 307.7c-1-1.2-2.3.4-2 2.3.8 4.5 1.9 10.6 2.1 13.8.3 5.7 8.9 4.1 10.1.2.9-2.8-6-11.4-10.2-16.3"/></defs><clipPath id="T"><use xlink:href="#S" overflow="visible"/></clipPath><g clip-path="url(#T)"><defs><path id="U" d="M-348.2-1633.8h2311.4v5778.5H-348.2z"/></defs><clipPath id="V"><use xlink:href="#U" overflow="visible"/></clipPath><path clip-path="url(#V)" fill="#66a0fb" d="M421.8 300h26.8v34.7h-26.8z"/></g><defs><path id="W" d="M477.2 304.6c.4-1.7 1.8-.9 2.2.8 1 4.6 2.6 8.4 2.6 11.5 0 5.3-6.9 6.5-8.3 3.2-1-2.4 1.4-6 3.5-15.5"/></defs><clipPath id="X"><use xlink:href="#W" overflow="visible"/></clipPath><g clip-path="url(#X)"><defs><path id="Y" d="M-348.2-1633.8h2311.4v5778.5H-348.2z"/></defs><clipPath id="Z"><use xlink:href="#Y" overflow="visible"/></clipPath><path clip-path="url(#Z)" fill="#66a0fb" d="M466.2 296.4h22.9v32.7h-22.9z"/></g><defs><path id="aa" d="M0 368.8c69.8-8.2 139.7-16.3 209.5-24.4l-.6-11.4C139.3 342.8 69.6 352.6 0 362.4v6.4z"/></defs><clipPath id="ab"><use xlink:href="#aa" overflow="visible"/></clipPath><g clip-path="url(#ab)"><defs><path id="ac" d="M-348.2-1633.8h2311.4v5778.5H-348.2z"/></defs><clipPath id="ad"><use xlink:href="#ac" overflow="visible"/></clipPath><path clip-path="url(#ad)" fill="#66a0fb" d="M-7.2 325.7h223.9V376H-7.2z"/></g><defs><path id="ae" d="M240.6 385.6c-.5-9.3-.3-19.1-.7-28.4-70.1 5.9-169.8 14.3-239.9 20.3v21.3c1 .7 2.1 1.2 3.3 1.2 67.7-.1 167.8-.5 235.5-.6 3.3 0 2.1-7.2 1.8-13.8"/></defs><clipPath id="af"><use xlink:href="#ae" overflow="visible"/></clipPath><g clip-path="url(#af)"><defs><path id="ag" d="M-348.2-1633.8h2311.4v5778.5H-348.2z"/></defs><clipPath id="ah"><use xlink:href="#ag" overflow="visible"/></clipPath><path clip-path="url(#ah)" fill="#66a0fb" d="M-7.2 349.9h255.5v57.3H-7.2z"/></g><defs><path id="ai" d="M159.7 286c-.2-4.3-2.3-7.4-4.6-6.7-46.3 13-92.7 26-139 39-1.4.4-2.8.8-4.3 1.2-1.5.4-6.3 1.6-11.8 2.9v31.8c6.1-1.3 11.8-2.5 13.4-2.7 1.4-.2 2.9-.5 4.3-.7l139.8-23.7c2.3-.4 4-4.3 3.8-8.6-.5-11-1-21.8-1.6-32.5"/></defs><clipPath id="aj"><use xlink:href="#ai" overflow="visible"/></clipPath><g clip-path="url(#aj)"><defs><path id="ak" d="M-348.2-1633.8h2311.4v5778.5H-348.2z"/></defs><clipPath id="al"><use xlink:href="#ak" overflow="visible"/></clipPath><path clip-path="url(#al)" fill="#66a0fb" d="M-7.2 271.9h175.8v89.4H-7.2z"/></g></svg>