<svg version="1.1" id="Слой_1" xmlns="http://www.w3.org/2000/svg" x="0" y="0" viewBox="0 0 500 400" xml:space="preserve"><style>.st0{fill:#cee8ff}.st1{fill:#66a0fb}</style><path transform="rotate(2.424 99 344.5)" class="st0" d="M9 334h180v21H9z"/><path class="st0" d="M45.6 207c-3.7 3.9-8.7 6.9-11.6 12-11 11-2 28-9 41-1.9 2.3-4.4 3.6-6.9 4.7-.4 2.7-1.9 4.9-4.3 6.5l-.7 35 156 3.2 2.1-99.8L45.6 207z"/><path class="st0" d="M24.9 284.2l-15.5-3.8L4 302.6l13 3.1c2.9-.1 5.9 0 8.8.1l3.6-14.9c-1.2-2.2-2.8-4.4-4.5-6.7zM167 280h78v28h-78zm-51-8h1v2h-1z"/><path class="st1" d="M362.6 294.1c-.5-6-11.7-5.6-11.7-5.6l-60.1 2.2c-.4-1.8-2.6-9.4-2.6-9.4s40.5-.2 57.5-1.4 15.3-10.5 15.3-10.5 2-76.6 1.6-91.2c-.4-14.6-3.8-69.9-5.1-81.3-1.4-11.5-1.4-25.9-12.9-30.1-11.5-4.2-23.5-6.9-32.1-7.7-8.5-.8-76.8 0-104.5 4.7-27.7 4.7-43.7 8.7-52.4 25.5-8.7 16.8-13.9 15.4-13.9 15.4-6.5 1-28.3 6.3-32.3 8.3-4 2-10.3 9.3-11.9 15.8-1.6 6.5 3.2 5.5 3.2 5.5-8.9 18-11.4 43.3-11.4 43.3-5.1 1.4-10.2 3.5-15.1 5.8V157c0-1.7-1.3-3-3-3h-8c-1.7 0-3 1.3-3 3v33.5c0 .3 0 .5.1.8-7.8 4.9-13.1 9-13.1 9-7.1 6.4-11.8 13.4-15 20.4 4.5-5.6 11.4-8.4 34.5-8.8 28.2-.5 53.5-2.5 81.2 0 27.7 2.5 22.2 16.3 22.2 25.3s-5.5 48.3-11.1 61.9c-2.4 5.9-2.5 8.8-4.1 10.3 17.3 2.1 91.7-1 91.7-1 2.7-11.4 3.6-13.6 5.6-19.8 2-6.2 18.2-32.3 30.8-4.2 12.3 27.5 8 67.1 8 67.1 4-.2 17-2.2 17-2.2s33.9-10 44.9-13.2c11-3.2 9.7-9.2 9.7-9.2s.5-26.8 0-32.8zM342 156.3s.1-2.1 2.1-1.1 7.1 4 7.1 4 1.3.8 1.3 4.6v29.7s.2 2.7-2.8 2.7-4.3-.4-5.7-.9c-1.3-.5-1.6-.7-2.1-5-.4-4.4.1-34 .1-34zm-42.7-20.8c2.6 1 8.8 4.3 8.8 4.3s1.9 1.9 2 6.1c.1 4.2 0 7.2 0 7.2h-13v-15.8s-.4-2.8 2.2-1.8zm-55.2 155.7c-1.4 7.4-5.9 15.7-19.2 15.3-13.3-.4-60.1 4.4-55.4-6.8 0 0 2.1-8.7 17.6-11.9 15.5-3.2 50.3-3.5 50.3-3.5s8.1-.5 6.7 6.9zm25.5-118.5s-150.5-1.9-177.6 4.6c0 0 2.6-34.3 14.6-48.7 0 0 155.1-14.1 179.5-4.9-.1.1-12.4 36.2-16.5 49zm10.6 23c-1.7-20.4 1.1-31.2 6.6-48.6 5.5-17.4 8.4-13 8.4-13l-1 43.1c.1 28.4-14 18.5-14 18.5zM25.9 254.9c-8.6 5.2-14 16.7-17.3 27.5 3.5 0 15.3.2 17.6 5.4 2.7 6.1 1.9 13.3-2 14.2-3.4.8-16.4-.4-19.8-.7-.5 3-.6 4.8-.6 4.8l31.9.6c-3.2-3.6-7.8-14-9.4-43.2-.1 0-.3-3.5-.4-8.6z"/><path class="st1" d="M366.8 178.2c.4 14.6-1.6 91.2-1.6 91.2s.5 2.4-1.3 4.9l15.4.3V68.4L354 70c6.3 6.1 6.5 17.5 7.6 26.8 1.5 11.5 4.8 66.7 5.2 81.4zM39.3 300.6h16c1.7 0 3-1.3 3-3v-67.3c0-1.7-1.3-3-3-3h-16c-1.7 0-3 1.3-3 3v67.3c0 1.7 1.3 3 3 3zm90.1 0h20.8c1.7 0 3-1.3 3-3v-67.3c0-1.7-1.3-3-3-3h-20.8c-1.7 0-3 1.3-3 3v67.3c0 1.7 1.3 3 3 3zm-65 0h21.9c1.7 0 3-1.3 3-3v-67.3c0-1.7-1.3-3-3-3H64.4c-1.7 0-3 1.3-3 3v67.3c0 1.7 1.4 3 3 3zm32.1 0h21.9c1.7 0 3-1.3 3-3v-67.3c0-1.7-1.3-3-3-3H96.5c-1.7 0-3 1.3-3 3v67.3c0 1.7 1.4 3 3 3zM203 315.7c-7.1 0-110.4-2.4-141.6-3.4-31.2-1.1-60.5-3.2-60.5-3.2-1.3 6.3-.8 42.3-.8 42.3 2.5 1.5 13 2.8 26.1 3.8 3.7 26.1 16.5 45.3 31.6 45.3 14.5 0 26.8-17.6 31.1-42 2.9.1 4.5.1 4.5.1s92.6 2.6 105.7 2.6 22.9-1.6 22.9-1.6l22.9-1.2c-2.1-22.2 1.4-46 1.4-46-2.2.4-36.2 3.3-43.3 3.3zM36.8 334.2l17.8.8c1.9.1 3.3 1.7 3.2 3.5l-.4 9.5c-.1 1.9-1.7 3.3-3.5 3.2l-17.8-.8c-1.9-.1-3.3-1.7-3.2-3.5l.4-9.5c.1-1.9 1.7-3.3 3.5-3.2zm-14 14.9l-10-.6c-1.7-.1-2.9-1.5-2.8-3.2l.6-9.7c.1-1.7 1.5-2.9 3.2-2.8l10 .6c1.7.1 2.9 1.5 2.8 3.2l-.6 9.7c-.1 1.6-1.6 2.9-3.2 2.8zm91 1.5c-.1 1.9-1.6 3.4-3.5 3.3l-42.4-1.2c-1.9-.1-3.4-1.6-3.3-3.5l.3-10.3c.1-1.9 1.6-3.4 3.5-3.3l42.4 1.2c1.9.1 3.4 1.6 3.3 3.5l-.3 10.3zm35.6 2.4c-.1 2.1-1.8 3.8-4 3.8l-20.3-.5c-2.1-.1-3.8-1.8-3.8-4l.3-10.8c.1-2.1 1.8-3.8 4-3.8l20.3.5c2.1.1 3.8 1.8 3.8 4l-.3 10.8zm35.7.7c0 1.9-1.5 3.4-3.4 3.4h-18.4c-1.9 0-3.4-1.5-3.4-3.4v-10.9c0-1.9 1.5-3.4 3.4-3.4h18.4c1.9 0 3.4 1.5 3.4 3.4v10.9zm83-75.5c-10.7 0-19.5 27.4-19.5 61.1 0 33.8 8.7 61.1 19.5 61.1 10.7 0 19.5-27.4 19.5-61.1-.1-33.7-8.8-61.1-19.5-61.1z"/><ellipse class="st1" cx="384.3" cy="316" rx="8.3" ry="37.4"/><path class="st1" d="M403.1 277.9c-4.1 0-7.5 15-7.5 33.6s3.3 33.6 7.5 33.6c4.1 0 7.5-15 7.5-33.6s-3.3-33.6-7.5-33.6zm74.7 2.1c-1.8 0-3.3 8.4-3.3 18.7 0 10.3 1.5 18.7 3.3 18.7 1.8 0 3.3-8.4 3.3-18.7 0-10.3-1.5-18.7-3.3-18.7zm6.7 0c-1 0-1.9 7.7-1.9 17.3 0 9.5.9 17.3 1.9 17.3 1.1 0 1.9-7.7 1.9-17.3 0-9.6-.8-17.3-1.9-17.3zM383.1 68.4v206.2l117 4v-98.7zm32.5 240l56.3-12.1s-.2-2.5.1-5.1c.2-1.9.5-4.5.5-4.5l-58.8 2c1.2 6.1 1.9 19.7 1.9 19.7z"/></svg>